<mxfile host="app.diagrams.net" agent="Mozilla/5.0 (Macintosh; Intel Mac OS X 10_15_7) AppleWebKit/537.36 (KHTML, like Gecko) Chrome/136.0.0.0 Safari/537.36" version="26.0.14">
  <diagram name="第 1 页" id="qc2q_1On10yiy-To-4JP">
    <mxGraphModel dx="1181" dy="1804" grid="1" gridSize="10" guides="1" tooltips="1" connect="1" arrows="1" fold="1" page="1" pageScale="1" pageWidth="1169" pageHeight="827" math="0" shadow="0">
      <root>
        <mxCell id="0" />
        <mxCell id="1" parent="0" />
        <mxCell id="NPRY7WiiiutcvWt0n5j4-72" value="" style="rounded=0;whiteSpace=wrap;html=1;fillColor=none;strokeColor=none;" parent="1" vertex="1">
          <mxGeometry x="50" y="-10" width="900" height="820" as="geometry" />
        </mxCell>
        <mxCell id="NPRY7WiiiutcvWt0n5j4-6" value="" style="rounded=0;whiteSpace=wrap;html=1;fillColor=#f5f5f5;fontColor=#333333;strokeColor=#666666;" parent="1" vertex="1">
          <mxGeometry x="340" y="270" width="320" height="400" as="geometry" />
        </mxCell>
        <mxCell id="NPRY7WiiiutcvWt0n5j4-69" value="优质特征" style="text;html=1;align=center;verticalAlign=middle;whiteSpace=wrap;rounded=0;fontSize=14;" parent="1" vertex="1">
          <mxGeometry x="580" y="470" width="70" height="40" as="geometry" />
        </mxCell>
        <mxCell id="NPRY7WiiiutcvWt0n5j4-60" style="edgeStyle=orthogonalEdgeStyle;rounded=0;orthogonalLoop=1;jettySize=auto;html=1;exitX=0.5;exitY=1;exitDx=0;exitDy=0;entryX=0.5;entryY=0;entryDx=0;entryDy=0;endSize=3;" parent="1" source="NPRY7WiiiutcvWt0n5j4-15" target="NPRY7WiiiutcvWt0n5j4-14" edge="1">
          <mxGeometry relative="1" as="geometry" />
        </mxCell>
        <mxCell id="NPRY7WiiiutcvWt0n5j4-15" value="边缘级&lt;div&gt;防御适应算法&lt;/div&gt;" style="rounded=1;whiteSpace=wrap;html=1;fontSize=14;fillColor=#f5f5f5;gradientColor=#b3b3b3;strokeColor=#666666;" parent="1" vertex="1">
          <mxGeometry x="510" y="430" width="120" height="40" as="geometry" />
        </mxCell>
        <mxCell id="NPRY7WiiiutcvWt0n5j4-62" style="edgeStyle=orthogonalEdgeStyle;rounded=0;orthogonalLoop=1;jettySize=auto;html=1;exitX=1;exitY=0.5;exitDx=0;exitDy=0;entryX=0;entryY=0.5;entryDx=0;entryDy=0;endSize=3;" parent="1" source="NPRY7WiiiutcvWt0n5j4-18" target="NPRY7WiiiutcvWt0n5j4-15" edge="1">
          <mxGeometry relative="1" as="geometry" />
        </mxCell>
        <mxCell id="NPRY7WiiiutcvWt0n5j4-18" value="多阶段&lt;div&gt;群体搜索模型&lt;/div&gt;" style="rounded=1;whiteSpace=wrap;html=1;fontSize=14;fillColor=#f5f5f5;gradientColor=#b3b3b3;strokeColor=#666666;" parent="1" vertex="1">
          <mxGeometry x="370" y="430" width="120" height="40" as="geometry" />
        </mxCell>
        <mxCell id="NPRY7WiiiutcvWt0n5j4-31" style="edgeStyle=orthogonalEdgeStyle;rounded=0;orthogonalLoop=1;jettySize=auto;html=1;exitX=0.5;exitY=1;exitDx=0;exitDy=0;entryX=0.5;entryY=0;entryDx=0;entryDy=0;endSize=3;" parent="1" source="NPRY7WiiiutcvWt0n5j4-1" target="NPRY7WiiiutcvWt0n5j4-2" edge="1">
          <mxGeometry relative="1" as="geometry" />
        </mxCell>
        <mxCell id="NPRY7WiiiutcvWt0n5j4-1" value="第一章 绪论" style="rounded=0;whiteSpace=wrap;html=1;fontSize=18;fontStyle=1;fillColor=#f5f5f5;fontColor=default;strokeColor=#666666;" parent="1" vertex="1">
          <mxGeometry x="400" width="200" height="80" as="geometry" />
        </mxCell>
        <mxCell id="NPRY7WiiiutcvWt0n5j4-33" style="edgeStyle=orthogonalEdgeStyle;rounded=0;orthogonalLoop=1;jettySize=auto;html=1;exitX=0.5;exitY=1;exitDx=0;exitDy=0;entryX=0.5;entryY=0;entryDx=0;entryDy=0;endSize=3;" parent="1" source="NPRY7WiiiutcvWt0n5j4-2" target="NPRY7WiiiutcvWt0n5j4-8" edge="1">
          <mxGeometry relative="1" as="geometry">
            <Array as="points">
              <mxPoint x="500" y="250" />
              <mxPoint x="160" y="250" />
            </Array>
          </mxGeometry>
        </mxCell>
        <mxCell id="NPRY7WiiiutcvWt0n5j4-34" style="edgeStyle=orthogonalEdgeStyle;rounded=0;orthogonalLoop=1;jettySize=auto;html=1;exitX=0.5;exitY=1;exitDx=0;exitDy=0;entryX=0.5;entryY=0;entryDx=0;entryDy=0;endSize=3;" parent="1" source="NPRY7WiiiutcvWt0n5j4-2" target="NPRY7WiiiutcvWt0n5j4-9" edge="1">
          <mxGeometry relative="1" as="geometry" />
        </mxCell>
        <mxCell id="NPRY7WiiiutcvWt0n5j4-35" style="edgeStyle=orthogonalEdgeStyle;rounded=0;orthogonalLoop=1;jettySize=auto;html=1;exitX=0.5;exitY=1;exitDx=0;exitDy=0;entryX=0.5;entryY=0;entryDx=0;entryDy=0;endSize=3;" parent="1" source="NPRY7WiiiutcvWt0n5j4-2" target="NPRY7WiiiutcvWt0n5j4-10" edge="1">
          <mxGeometry relative="1" as="geometry">
            <Array as="points">
              <mxPoint x="500" y="250" />
              <mxPoint x="840" y="250" />
            </Array>
          </mxGeometry>
        </mxCell>
        <mxCell id="NPRY7WiiiutcvWt0n5j4-2" value="第二章 相关技术概述" style="rounded=0;whiteSpace=wrap;html=1;fontSize=18;fontStyle=1;fillColor=#f5f5f5;fontColor=default;strokeColor=#666666;" parent="1" vertex="1">
          <mxGeometry x="400" y="130" width="200" height="80" as="geometry" />
        </mxCell>
        <mxCell id="NPRY7WiiiutcvWt0n5j4-3" value="第六章 总结与展望" style="rounded=0;whiteSpace=wrap;html=1;fontSize=18;fontStyle=1;fillColor=#f5f5f5;fontColor=default;strokeColor=#666666;" parent="1" vertex="1">
          <mxGeometry x="400" y="720" width="200" height="80" as="geometry" />
        </mxCell>
        <mxCell id="NPRY7WiiiutcvWt0n5j4-38" style="edgeStyle=orthogonalEdgeStyle;rounded=0;orthogonalLoop=1;jettySize=auto;html=1;exitX=0.5;exitY=1;exitDx=0;exitDy=0;entryX=0.5;entryY=0;entryDx=0;entryDy=0;endSize=3;" parent="1" source="NPRY7WiiiutcvWt0n5j4-4" target="NPRY7WiiiutcvWt0n5j4-3" edge="1">
          <mxGeometry relative="1" as="geometry">
            <Array as="points">
              <mxPoint x="160" y="690" />
              <mxPoint x="500" y="690" />
            </Array>
          </mxGeometry>
        </mxCell>
        <mxCell id="NPRY7WiiiutcvWt0n5j4-4" value="" style="rounded=0;whiteSpace=wrap;html=1;fillColor=#f5f5f5;fontColor=#333333;strokeColor=#666666;" parent="1" vertex="1">
          <mxGeometry x="60" y="270" width="200" height="400" as="geometry" />
        </mxCell>
        <mxCell id="NPRY7WiiiutcvWt0n5j4-39" style="edgeStyle=orthogonalEdgeStyle;rounded=0;orthogonalLoop=1;jettySize=auto;html=1;exitX=0.5;exitY=1;exitDx=0;exitDy=0;entryX=0.5;entryY=0;entryDx=0;entryDy=0;endSize=3;" parent="1" source="NPRY7WiiiutcvWt0n5j4-6" target="NPRY7WiiiutcvWt0n5j4-3" edge="1">
          <mxGeometry relative="1" as="geometry" />
        </mxCell>
        <mxCell id="NPRY7WiiiutcvWt0n5j4-40" style="edgeStyle=orthogonalEdgeStyle;rounded=0;orthogonalLoop=1;jettySize=auto;html=1;exitX=0.5;exitY=1;exitDx=0;exitDy=0;entryX=0.5;entryY=0;entryDx=0;entryDy=0;endSize=3;" parent="1" source="NPRY7WiiiutcvWt0n5j4-7" target="NPRY7WiiiutcvWt0n5j4-3" edge="1">
          <mxGeometry relative="1" as="geometry">
            <Array as="points">
              <mxPoint x="840" y="690" />
              <mxPoint x="500" y="690" />
            </Array>
          </mxGeometry>
        </mxCell>
        <mxCell id="NPRY7WiiiutcvWt0n5j4-7" value="" style="rounded=0;whiteSpace=wrap;html=1;fillColor=#f5f5f5;fontColor=#333333;strokeColor=#666666;" parent="1" vertex="1">
          <mxGeometry x="740" y="270" width="200" height="400" as="geometry" />
        </mxCell>
        <mxCell id="NPRY7WiiiutcvWt0n5j4-8" value="第三章 基于模型多样性的&lt;span style=&quot;background-color: transparent; color: light-dark(rgb(0, 0, 0), rgb(255, 255, 255));&quot;&gt;移动目标防御机制&lt;/span&gt;" style="text;html=1;align=center;verticalAlign=middle;whiteSpace=wrap;rounded=0;fontSize=18;fontStyle=1" parent="1" vertex="1">
          <mxGeometry x="60" y="270" width="200" height="80" as="geometry" />
        </mxCell>
        <mxCell id="NPRY7WiiiutcvWt0n5j4-9" value="第四章 分层网络流量&lt;div&gt;移动目标防御方法&lt;/div&gt;" style="text;html=1;align=center;verticalAlign=middle;whiteSpace=wrap;rounded=0;fontSize=18;fontStyle=1" parent="1" vertex="1">
          <mxGeometry x="340" y="270" width="320" height="80" as="geometry" />
        </mxCell>
        <mxCell id="NPRY7WiiiutcvWt0n5j4-10" value="第五章 移动目标防御增强的&lt;span style=&quot;background-color: transparent; color: light-dark(rgb(0, 0, 0), rgb(255, 255, 255));&quot;&gt;入侵检测原型系统&lt;/span&gt;" style="text;html=1;align=center;verticalAlign=middle;whiteSpace=wrap;rounded=0;fontSize=18;fontStyle=1" parent="1" vertex="1">
          <mxGeometry x="740" y="270" width="200" height="80" as="geometry" />
        </mxCell>
        <mxCell id="NPRY7WiiiutcvWt0n5j4-63" style="edgeStyle=orthogonalEdgeStyle;rounded=0;orthogonalLoop=1;jettySize=auto;html=1;exitX=1;exitY=0.5;exitDx=0;exitDy=0;entryX=0;entryY=0.5;entryDx=0;entryDy=0;endSize=3;" parent="1" source="NPRY7WiiiutcvWt0n5j4-11" target="NPRY7WiiiutcvWt0n5j4-14" edge="1">
          <mxGeometry relative="1" as="geometry" />
        </mxCell>
        <mxCell id="NPRY7WiiiutcvWt0n5j4-11" value="马尔可夫决策过程" style="rounded=1;whiteSpace=wrap;html=1;fontSize=14;fillColor=#f5f5f5;gradientColor=#b3b3b3;strokeColor=#666666;" parent="1" vertex="1">
          <mxGeometry x="370" y="510" width="120" height="40" as="geometry" />
        </mxCell>
        <mxCell id="NPRY7WiiiutcvWt0n5j4-52" style="edgeStyle=orthogonalEdgeStyle;rounded=0;orthogonalLoop=1;jettySize=auto;html=1;exitX=0.5;exitY=1;exitDx=0;exitDy=0;entryX=0.5;entryY=0;entryDx=0;entryDy=0;endSize=3;" parent="1" source="NPRY7WiiiutcvWt0n5j4-12" target="NPRY7WiiiutcvWt0n5j4-13" edge="1">
          <mxGeometry relative="1" as="geometry" />
        </mxCell>
        <mxCell id="NPRY7WiiiutcvWt0n5j4-12" value="分布式部分可观测马尔可夫决策过程" style="rounded=1;whiteSpace=wrap;html=1;fontSize=14;fillColor=#f5f5f5;gradientColor=#b3b3b3;strokeColor=#666666;" parent="1" vertex="1">
          <mxGeometry x="100" y="470" width="120" height="60" as="geometry" />
        </mxCell>
        <mxCell id="NPRY7WiiiutcvWt0n5j4-13" value="多模型&lt;div&gt;差分采样算法&lt;/div&gt;" style="rounded=1;whiteSpace=wrap;html=1;fontSize=14;fillColor=#f5f5f5;gradientColor=#b3b3b3;strokeColor=#666666;" parent="1" vertex="1">
          <mxGeometry x="100" y="590" width="120" height="60" as="geometry" />
        </mxCell>
        <mxCell id="NPRY7WiiiutcvWt0n5j4-14" value="全局级&lt;div&gt;防御适应算法&lt;/div&gt;" style="rounded=1;whiteSpace=wrap;html=1;fontSize=14;fillColor=#f5f5f5;gradientColor=#b3b3b3;strokeColor=#666666;" parent="1" vertex="1">
          <mxGeometry x="510" y="510" width="120" height="40" as="geometry" />
        </mxCell>
        <mxCell id="NPRY7WiiiutcvWt0n5j4-51" style="edgeStyle=orthogonalEdgeStyle;rounded=0;orthogonalLoop=1;jettySize=auto;html=1;exitX=0.5;exitY=1;exitDx=0;exitDy=0;entryX=0.5;entryY=0;entryDx=0;entryDy=0;endSize=3;" parent="1" source="NPRY7WiiiutcvWt0n5j4-16" target="NPRY7WiiiutcvWt0n5j4-12" edge="1">
          <mxGeometry relative="1" as="geometry" />
        </mxCell>
        <mxCell id="NPRY7WiiiutcvWt0n5j4-16" value="自动调制分类" style="rounded=1;whiteSpace=wrap;html=1;fontSize=14;fillColor=#f5f5f5;gradientColor=#b3b3b3;strokeColor=#666666;" parent="1" vertex="1">
          <mxGeometry x="100" y="350" width="120" height="60" as="geometry" />
        </mxCell>
        <mxCell id="NPRY7WiiiutcvWt0n5j4-59" style="edgeStyle=orthogonalEdgeStyle;rounded=0;orthogonalLoop=1;jettySize=auto;html=1;exitX=0.5;exitY=1;exitDx=0;exitDy=0;entryX=0;entryY=0.5;entryDx=0;entryDy=0;endSize=3;" parent="1" source="NPRY7WiiiutcvWt0n5j4-17" target="NPRY7WiiiutcvWt0n5j4-18" edge="1">
          <mxGeometry relative="1" as="geometry">
            <Array as="points">
              <mxPoint x="500" y="400" />
              <mxPoint x="350" y="400" />
              <mxPoint x="350" y="450" />
            </Array>
          </mxGeometry>
        </mxCell>
        <mxCell id="NPRY7WiiiutcvWt0n5j4-68" style="edgeStyle=orthogonalEdgeStyle;rounded=0;orthogonalLoop=1;jettySize=auto;html=1;exitX=0.5;exitY=1;exitDx=0;exitDy=0;entryX=0;entryY=0.5;entryDx=0;entryDy=0;endSize=3;" parent="1" source="NPRY7WiiiutcvWt0n5j4-17" target="NPRY7WiiiutcvWt0n5j4-11" edge="1">
          <mxGeometry relative="1" as="geometry">
            <Array as="points">
              <mxPoint x="500" y="400" />
              <mxPoint x="350" y="400" />
              <mxPoint x="350" y="530" />
            </Array>
          </mxGeometry>
        </mxCell>
        <mxCell id="NPRY7WiiiutcvWt0n5j4-17" value="网络入侵检测" style="rounded=1;whiteSpace=wrap;html=1;fontSize=14;fillColor=#f5f5f5;gradientColor=#b3b3b3;strokeColor=#666666;" parent="1" vertex="1">
          <mxGeometry x="440" y="350" width="120" height="40" as="geometry" />
        </mxCell>
        <mxCell id="NPRY7WiiiutcvWt0n5j4-27" style="edgeStyle=orthogonalEdgeStyle;rounded=0;orthogonalLoop=1;jettySize=auto;html=1;exitX=0.5;exitY=1;exitDx=0;exitDy=0;entryX=0.5;entryY=0;entryDx=0;entryDy=0;endSize=3;" parent="1" source="NPRY7WiiiutcvWt0n5j4-19" target="NPRY7WiiiutcvWt0n5j4-21" edge="1">
          <mxGeometry relative="1" as="geometry" />
        </mxCell>
        <mxCell id="NPRY7WiiiutcvWt0n5j4-19" value="需求分析" style="rounded=1;whiteSpace=wrap;html=1;fontSize=14;fillColor=#f5f5f5;gradientColor=#b3b3b3;strokeColor=#666666;" parent="1" vertex="1">
          <mxGeometry x="780" y="350" width="120" height="40" as="geometry" />
        </mxCell>
        <mxCell id="NPRY7WiiiutcvWt0n5j4-20" value="性能测试" style="rounded=1;whiteSpace=wrap;html=1;fontSize=14;fillColor=#f5f5f5;gradientColor=#b3b3b3;strokeColor=#666666;" parent="1" vertex="1">
          <mxGeometry x="780" y="590" width="120" height="40" as="geometry" />
        </mxCell>
        <mxCell id="NPRY7WiiiutcvWt0n5j4-28" style="edgeStyle=orthogonalEdgeStyle;rounded=0;orthogonalLoop=1;jettySize=auto;html=1;exitX=0.5;exitY=1;exitDx=0;exitDy=0;entryX=0.5;entryY=0;entryDx=0;entryDy=0;endSize=3;" parent="1" source="NPRY7WiiiutcvWt0n5j4-21" target="NPRY7WiiiutcvWt0n5j4-22" edge="1">
          <mxGeometry relative="1" as="geometry" />
        </mxCell>
        <mxCell id="NPRY7WiiiutcvWt0n5j4-21" value="架构设计" style="rounded=1;whiteSpace=wrap;html=1;fontSize=14;fillColor=#f5f5f5;gradientColor=#b3b3b3;strokeColor=#666666;" parent="1" vertex="1">
          <mxGeometry x="780" y="430" width="120" height="40" as="geometry" />
        </mxCell>
        <mxCell id="NPRY7WiiiutcvWt0n5j4-29" style="edgeStyle=orthogonalEdgeStyle;rounded=0;orthogonalLoop=1;jettySize=auto;html=1;exitX=0.5;exitY=1;exitDx=0;exitDy=0;entryX=0.5;entryY=0;entryDx=0;entryDy=0;endSize=3;" parent="1" source="NPRY7WiiiutcvWt0n5j4-22" target="NPRY7WiiiutcvWt0n5j4-20" edge="1">
          <mxGeometry relative="1" as="geometry" />
        </mxCell>
        <mxCell id="NPRY7WiiiutcvWt0n5j4-22" value="原型实现" style="rounded=1;whiteSpace=wrap;html=1;fontSize=14;fillColor=#f5f5f5;gradientColor=#b3b3b3;strokeColor=#666666;" parent="1" vertex="1">
          <mxGeometry x="780" y="510" width="120" height="40" as="geometry" />
        </mxCell>
        <mxCell id="NPRY7WiiiutcvWt0n5j4-32" value="引出" style="text;html=1;align=center;verticalAlign=middle;whiteSpace=wrap;rounded=0;fontSize=14;" parent="1" vertex="1">
          <mxGeometry x="500" y="90" width="50" height="30" as="geometry" />
        </mxCell>
        <mxCell id="NPRY7WiiiutcvWt0n5j4-36" value="理论依据" style="text;html=1;align=center;verticalAlign=middle;whiteSpace=wrap;rounded=0;fontSize=14;" parent="1" vertex="1">
          <mxGeometry x="500" y="210" width="80" height="40" as="geometry" />
        </mxCell>
        <mxCell id="NPRY7WiiiutcvWt0n5j4-49" value="" style="shape=flexArrow;endArrow=classic;html=1;rounded=0;fillColor=#f5f5f5;strokeColor=#666666;gradientColor=#b3b3b3;entryX=0;entryY=0.5;entryDx=0;entryDy=0;width=20;exitX=1;exitY=0.5;exitDx=0;exitDy=0;" parent="1" source="NPRY7WiiiutcvWt0n5j4-6" target="NPRY7WiiiutcvWt0n5j4-7" edge="1">
          <mxGeometry width="50" height="50" relative="1" as="geometry">
            <mxPoint x="660" y="490" as="sourcePoint" />
            <mxPoint x="710" y="490" as="targetPoint" />
          </mxGeometry>
        </mxCell>
        <mxCell id="NPRY7WiiiutcvWt0n5j4-50" value="工程实现" style="text;html=1;align=center;verticalAlign=middle;whiteSpace=wrap;rounded=0;fontSize=14;" parent="1" vertex="1">
          <mxGeometry x="660" y="420" width="80" height="40" as="geometry" />
        </mxCell>
        <mxCell id="NPRY7WiiiutcvWt0n5j4-58" value="安全态势感知" style="rounded=1;whiteSpace=wrap;html=1;fontSize=14;fillColor=#f5f5f5;gradientColor=#b3b3b3;strokeColor=#666666;" parent="1" vertex="1">
          <mxGeometry x="440" y="590" width="120" height="40" as="geometry" />
        </mxCell>
        <mxCell id="NPRY7WiiiutcvWt0n5j4-70" value="" style="shape=flexArrow;endArrow=classic;html=1;rounded=0;fillColor=#f5f5f5;strokeColor=#666666;gradientColor=#b3b3b3;entryX=0;entryY=0.5;entryDx=0;entryDy=0;width=20;exitX=1;exitY=0.5;exitDx=0;exitDy=0;" parent="1" source="NPRY7WiiiutcvWt0n5j4-4" target="NPRY7WiiiutcvWt0n5j4-6" edge="1">
          <mxGeometry width="50" height="50" relative="1" as="geometry">
            <mxPoint x="670" y="480" as="sourcePoint" />
            <mxPoint x="750" y="480" as="targetPoint" />
          </mxGeometry>
        </mxCell>
        <mxCell id="NPRY7WiiiutcvWt0n5j4-71" value="场景扩展" style="text;html=1;align=center;verticalAlign=middle;whiteSpace=wrap;rounded=0;fontSize=14;" parent="1" vertex="1">
          <mxGeometry x="260" y="420" width="80" height="40" as="geometry" />
        </mxCell>
      </root>
    </mxGraphModel>
  </diagram>
</mxfile>
